<mxfile host="localhost" modified="2020-05-10T14:44:25.247Z" agent="5.0 (X11; Linux x86_64) AppleWebKit/537.36 (KHTML, like Gecko) Code/1.45.0 Chrome/78.0.3904.130 Electron/7.2.4 Safari/537.36" etag="nohrW87A4QjX-lJZyvv3" version="13.0.9">
    <diagram id="k9Sa7YGBgF8uNKHyu2uj" name="Page-1">
        <mxGraphModel dx="1061" dy="855" grid="1" gridSize="10" guides="1" tooltips="1" connect="1" arrows="1" fold="1" page="1" pageScale="1" pageWidth="850" pageHeight="1100" math="0" shadow="0">
            <root>
                <mxCell id="0"/>
                <mxCell id="1" parent="0"/>
                <mxCell id="bjxnMCp0ImckcVAFW5EX-8" value="" style="edgeStyle=orthogonalEdgeStyle;rounded=0;orthogonalLoop=1;jettySize=auto;html=1;exitX=0.25;exitY=1;exitDx=0;exitDy=0;entryX=0.43;entryY=-0.033;entryDx=0;entryDy=0;entryPerimeter=0;" parent="1" source="bjxnMCp0ImckcVAFW5EX-1" target="bjxnMCp0ImckcVAFW5EX-2" edge="1">
                    <mxGeometry relative="1" as="geometry">
                        <mxPoint x="370" y="170" as="targetPoint"/>
                    </mxGeometry>
                </mxCell>
                <mxCell id="bjxnMCp0ImckcVAFW5EX-1" value="&lt;font style=&quot;font-size: 20px&quot;&gt;Бот&lt;/font&gt;" style="rounded=1;whiteSpace=wrap;html=1;" parent="1" vertex="1">
                    <mxGeometry x="340" y="50" width="120" height="60" as="geometry"/>
                </mxCell>
                <mxCell id="bjxnMCp0ImckcVAFW5EX-9" value="" style="edgeStyle=orthogonalEdgeStyle;rounded=0;orthogonalLoop=1;jettySize=auto;html=1;exitX=0.57;exitY=0;exitDx=0;exitDy=0;entryX=0.75;entryY=1;entryDx=0;entryDy=0;exitPerimeter=0;" parent="1" source="bjxnMCp0ImckcVAFW5EX-2" target="bjxnMCp0ImckcVAFW5EX-1" edge="1">
                    <mxGeometry relative="1" as="geometry"/>
                </mxCell>
                <mxCell id="bjxnMCp0ImckcVAFW5EX-15" style="edgeStyle=orthogonalEdgeStyle;rounded=0;orthogonalLoop=1;jettySize=auto;html=1;exitX=0.082;exitY=0.987;exitDx=0;exitDy=0;entryX=0.25;entryY=0;entryDx=0;entryDy=0;exitPerimeter=0;" parent="1" source="bjxnMCp0ImckcVAFW5EX-2" target="bjxnMCp0ImckcVAFW5EX-3" edge="1">
                    <mxGeometry relative="1" as="geometry"/>
                </mxCell>
                <mxCell id="bjxnMCp0ImckcVAFW5EX-19" style="edgeStyle=orthogonalEdgeStyle;rounded=0;orthogonalLoop=1;jettySize=auto;html=1;exitX=0.825;exitY=1.007;exitDx=0;exitDy=0;entryX=0.5;entryY=0;entryDx=0;entryDy=0;exitPerimeter=0;" parent="1" source="bjxnMCp0ImckcVAFW5EX-2" target="bjxnMCp0ImckcVAFW5EX-4" edge="1">
                    <mxGeometry relative="1" as="geometry">
                        <Array as="points"/>
                    </mxGeometry>
                </mxCell>
                <mxCell id="bjxnMCp0ImckcVAFW5EX-2" value="&lt;font style=&quot;font-size: 20px&quot;&gt;Очередь&lt;/font&gt;" style="rounded=1;whiteSpace=wrap;html=1;" parent="1" vertex="1">
                    <mxGeometry x="185" y="220" width="430" height="60" as="geometry"/>
                </mxCell>
                <mxCell id="bjxnMCp0ImckcVAFW5EX-17" style="edgeStyle=orthogonalEdgeStyle;rounded=0;orthogonalLoop=1;jettySize=auto;html=1;exitX=0.75;exitY=0;exitDx=0;exitDy=0;entryX=0.268;entryY=1.036;entryDx=0;entryDy=0;entryPerimeter=0;" parent="1" source="bjxnMCp0ImckcVAFW5EX-3" target="bjxnMCp0ImckcVAFW5EX-2" edge="1">
                    <mxGeometry relative="1" as="geometry"/>
                </mxCell>
                <mxCell id="bjxnMCp0ImckcVAFW5EX-3" value="&lt;font style=&quot;font-size: 20px&quot;&gt;Отправитель&lt;/font&gt;" style="rounded=1;whiteSpace=wrap;html=1;" parent="1" vertex="1">
                    <mxGeometry x="180" y="380" width="160" height="60" as="geometry"/>
                </mxCell>
                <mxCell id="bjxnMCp0ImckcVAFW5EX-4" value="&lt;font style=&quot;font-size: 20px&quot;&gt;Расшариватель&lt;/font&gt;" style="rounded=1;whiteSpace=wrap;html=1;" parent="1" vertex="1">
                    <mxGeometry x="460" y="380" width="160" height="60" as="geometry"/>
                </mxCell>
                <mxCell id="bjxnMCp0ImckcVAFW5EX-11" value="&lt;font style=&quot;font-size: 14px&quot;&gt;Получает статус отправки, картинку с капчей.&lt;/font&gt;" style="text;html=1;strokeColor=none;fillColor=none;align=center;verticalAlign=middle;whiteSpace=wrap;rounded=0;" parent="1" vertex="1">
                    <mxGeometry x="450" y="135" width="140" height="60" as="geometry"/>
                </mxCell>
                <mxCell id="bjxnMCp0ImckcVAFW5EX-16" value="Получает обращения, текст капчи." style="text;html=1;strokeColor=none;fillColor=none;align=center;verticalAlign=middle;whiteSpace=wrap;rounded=0;" parent="1" vertex="1">
                    <mxGeometry x="120" y="300" width="90" height="50" as="geometry"/>
                </mxCell>
                <mxCell id="bjxnMCp0ImckcVAFW5EX-18" value="Отправляет статусы отправки обращения и картинку с капчей." style="text;html=1;strokeColor=none;fillColor=none;align=center;verticalAlign=middle;whiteSpace=wrap;rounded=0;" parent="1" vertex="1">
                    <mxGeometry x="310" y="300" width="150" height="50" as="geometry"/>
                </mxCell>
                <mxCell id="bjxnMCp0ImckcVAFW5EX-22" value="Получает посты с нарушениями для расшаривания в соцсетях." style="text;html=1;strokeColor=none;fillColor=none;align=center;verticalAlign=middle;whiteSpace=wrap;rounded=0;" parent="1" vertex="1">
                    <mxGeometry x="550" y="300" width="160" height="50" as="geometry"/>
                </mxCell>
                <mxCell id="3" value="&lt;div&gt;&lt;span style=&quot;font-size: 14px&quot;&gt;Подготавливает и кладет&amp;nbsp;&lt;/span&gt;&lt;/div&gt;&lt;div&gt;&lt;span style=&quot;font-size: 14px&quot;&gt;в очередь обращение.&amp;nbsp;&lt;/span&gt;&lt;/div&gt;&lt;div&gt;&lt;span style=&quot;font-size: 14px&quot;&gt;Посылает текст введенной капчи.&lt;/span&gt;&lt;/div&gt;" style="text;html=1;strokeColor=none;fillColor=none;align=center;verticalAlign=middle;whiteSpace=wrap;rounded=0;" parent="1" vertex="1">
                    <mxGeometry x="120" y="135" width="240" height="60" as="geometry"/>
                </mxCell>
            </root>
        </mxGraphModel>
    </diagram>
</mxfile>
